<svg width="285" height="64" viewBox="0 0 285 64" fill="none" xmlns="http://www.w3.org/2000/svg">
<rect opacity="0.2" width="285" height="64" rx="15" fill="#050A10"/>
<g clip-path="url(#clip0_368_1349)">
<path d="M85.8263 29.1029H88.9921C88.5917 26.0684 86.3413 24.4734 83.2134 24.4734C80.0477 24.4734 77.9308 26.1268 77.9308 28.9668C77.9308 32.1958 80.6579 32.9154 82.1074 33.2073C83.9763 33.5769 85.8072 33.6158 85.8072 35.2497C85.8072 36.3584 84.8918 36.9031 83.5949 36.9031C81.9929 36.9031 80.925 36.0861 80.6579 34.6079H77.5303C77.7209 37.7979 79.9905 39.5096 83.328 39.5096C86.4175 39.5096 88.9539 38.0703 88.9539 34.9579C88.9539 31.6122 86.0361 31.0092 83.9954 30.698C82.6032 30.484 81.0775 30.2895 81.0775 28.7917C81.0775 27.7413 81.8594 27.0994 83.1753 27.0994C84.7011 27.0994 85.6164 27.9748 85.8263 29.1029Z" fill="white"/>
<path d="M75.795 24.9597H72.8008V39.0622H75.795V24.9597Z" fill="white"/>
<path d="M63.7606 34.1409H67.6703C67.06 35.6583 65.6868 36.3778 64.1039 36.3778C61.3196 36.3778 60.0227 34.1798 60.0227 32.0012C60.0227 29.8031 61.2432 27.5662 64.0849 27.5662C65.8204 27.5662 67.1171 28.3832 67.613 29.8421L70.8361 29.8421C70.2831 26.5548 67.4605 24.668 64.1231 24.668C60.0036 24.668 56.9141 27.5273 56.9141 32.0402C56.9141 36.6113 60.2706 39.3151 64.1039 39.3151C67.8801 39.3151 70.8361 36.8059 70.8361 32.8766V31.7289H63.7606V34.1409Z" fill="white"/>
<path d="M50.0675 24.668C46.6347 24.668 44.0982 26.866 44.1173 30.5229H47.2069C47.1687 28.9279 48.1604 27.469 49.9149 27.469C51.4407 27.469 52.337 28.5583 52.337 29.8032C52.337 31.0481 51.4407 31.7484 49.7814 32.507C47.512 33.538 45.8909 34.1993 44.2317 34.7829V39.0622H55.7889V36.1834H47.8548C47.8548 36.1834 47.8812 36.1749 47.8942 36.1709C49.2437 35.7539 50.2575 35.3008 51.4598 34.7634C54.0344 33.5963 55.5029 32.1374 55.5029 29.6476C55.5029 26.5936 53.2906 24.668 50.0675 24.668Z" fill="white"/>
<path d="M35.993 34.1021C32.1024 34.1215 31.4731 36.5141 31.2633 38.537L31.168 39.4318H30.386L30.2907 38.537C30.0809 36.5141 29.4325 34.1215 25.6754 34.1021C25.0461 32.7793 24.7791 31.7094 24.7791 30.5034C24.7791 27.4885 27.2012 24.6679 30.7865 24.6679C34.3719 24.6679 36.7558 27.4689 36.7558 30.523C36.7558 31.7094 36.6414 32.7793 35.993 34.1021ZM30.7484 21.0109C24.8363 21.0109 19.9922 25.9517 19.9922 32.0011C19.9922 38.0702 24.8363 43.0109 30.7484 43.0109C36.7177 43.0109 41.5427 38.0702 41.5427 32.0011C41.5427 25.9517 36.7177 21.0109 30.7484 21.0109Z" fill="#29B24A"/>
</g>
<path d="M119.116 23.6763C119.491 22.9652 120.509 22.9652 120.884 23.6763L122.827 27.3582C122.972 27.6325 123.235 27.8241 123.541 27.8769L127.643 28.5867C128.435 28.7238 128.75 29.6924 128.19 30.269L125.288 33.2543C125.072 33.4766 124.971 33.7867 125.015 34.0936L125.608 38.2141C125.723 39.01 124.899 39.6086 124.177 39.2538L120.441 37.417C120.163 37.2801 119.837 37.2801 119.559 37.417L115.823 39.2538C115.101 39.6086 114.277 39.01 114.392 38.2141L114.985 34.0936C115.029 33.7867 114.928 33.4766 114.712 33.2543L111.81 30.269C111.25 29.6924 111.565 28.7238 112.357 28.5867L116.459 27.8769C116.765 27.8241 117.028 27.6325 117.173 27.3582L119.116 23.6763Z" fill="#FF7B00"/>
<path d="M144.116 23.6763C144.491 22.9652 145.509 22.9652 145.884 23.6763L147.827 27.3582C147.972 27.6325 148.235 27.8241 148.541 27.8769L152.643 28.5867C153.435 28.7238 153.75 29.6924 153.19 30.269L150.288 33.2543C150.072 33.4766 149.971 33.7867 150.015 34.0936L150.608 38.2141C150.723 39.01 149.899 39.6086 149.177 39.2538L145.441 37.417C145.163 37.2801 144.837 37.2801 144.559 37.417L140.823 39.2538C140.101 39.6086 139.277 39.01 139.392 38.2141L139.985 34.0936C140.029 33.7867 139.928 33.4766 139.712 33.2543L136.81 30.269C136.25 29.6924 136.565 28.7238 137.357 28.5867L141.459 27.8769C141.765 27.8241 142.028 27.6325 142.173 27.3582L144.116 23.6763Z" fill="#FF7B00"/>
<path d="M169.116 23.6763C169.491 22.9652 170.509 22.9652 170.884 23.6763L172.827 27.3582C172.972 27.6325 173.235 27.8241 173.541 27.8769L177.643 28.5867C178.435 28.7238 178.75 29.6924 178.19 30.269L175.288 33.2543C175.072 33.4766 174.971 33.7867 175.015 34.0936L175.608 38.2141C175.723 39.01 174.899 39.6086 174.177 39.2538L170.441 37.417C170.163 37.2801 169.837 37.2801 169.559 37.417L165.823 39.2538C165.101 39.6086 164.277 39.01 164.392 38.2141L164.985 34.0936C165.029 33.7867 164.928 33.4766 164.712 33.2543L161.81 30.269C161.25 29.6924 161.565 28.7238 162.357 28.5867L166.459 27.8769C166.765 27.8241 167.028 27.6325 167.173 27.3582L169.116 23.6763Z" fill="#FF7B00"/>
<path d="M194.116 23.6763C194.491 22.9652 195.509 22.9652 195.884 23.6763L197.827 27.3582C197.972 27.6325 198.235 27.8241 198.541 27.8769L202.643 28.5867C203.435 28.7238 203.75 29.6924 203.19 30.269L200.288 33.2543C200.072 33.4766 199.971 33.7867 200.015 34.0936L200.608 38.2141C200.723 39.01 199.899 39.6086 199.177 39.2538L195.441 37.417C195.163 37.2801 194.837 37.2801 194.559 37.417L190.823 39.2538C190.101 39.6086 189.277 39.01 189.392 38.2141L189.985 34.0936C190.029 33.7867 189.928 33.4766 189.712 33.2543L186.81 30.269C186.25 29.6924 186.565 28.7238 187.357 28.5867L191.459 27.8769C191.765 27.8241 192.028 27.6325 192.173 27.3582L194.116 23.6763Z" fill="#FF7B00"/>
<path d="M219.116 23.6763C219.491 22.9652 220.509 22.9652 220.884 23.6763L222.827 27.3582C222.972 27.6325 223.235 27.8241 223.541 27.8769L227.643 28.5867C228.435 28.7238 228.75 29.6924 228.19 30.269L225.288 33.2543C225.072 33.4766 224.971 33.7867 225.015 34.0936L225.608 38.2141C225.723 39.01 224.899 39.6086 224.177 39.2538L220.441 37.417C220.163 37.2801 219.837 37.2801 219.559 37.417L215.823 39.2538C215.101 39.6086 214.277 39.01 214.392 38.2141L214.985 34.0936C215.029 33.7867 214.928 33.4766 214.712 33.2543L211.81 30.269C211.25 29.6924 211.565 28.7238 212.357 28.5867L216.459 27.8769C216.765 27.8241 217.028 27.6325 217.173 27.3582L219.116 23.6763Z" fill="#FF7B00"/>
<path d="M236.165 36.017V34.5682L242.557 24.4545H243.608V26.6989H242.898L238.068 34.3409V34.4545H246.676V36.017H236.165ZM243.011 39V35.5767V34.902V24.4545H244.688V39H243.011ZM249.904 39.1136C249.554 39.1136 249.253 38.9882 249.002 38.7372C248.751 38.4863 248.626 38.1856 248.626 37.8352C248.626 37.4848 248.751 37.1842 249.002 36.9332C249.253 36.6823 249.554 36.5568 249.904 36.5568C250.254 36.5568 250.555 36.6823 250.806 36.9332C251.057 37.1842 251.183 37.4848 251.183 37.8352C251.183 38.0672 251.123 38.2803 251.005 38.4744C250.891 38.6686 250.737 38.8248 250.543 38.9432C250.354 39.0568 250.141 39.1136 249.904 39.1136ZM258.656 24.2557C259.252 24.2604 259.849 24.3741 260.446 24.5966C261.042 24.8191 261.587 25.1884 262.079 25.7045C262.572 26.2159 262.967 26.9143 263.265 27.7997C263.564 28.6851 263.713 29.7955 263.713 31.1307C263.713 32.4233 263.59 33.5715 263.343 34.5753C263.102 35.5743 262.752 36.4171 262.292 37.1037C261.838 37.7902 261.284 38.3111 260.63 38.6662C259.982 39.0213 259.248 39.1989 258.429 39.1989C257.614 39.1989 256.887 39.0379 256.248 38.7159C255.614 38.3892 255.093 37.937 254.686 37.3594C254.283 36.777 254.025 36.1023 253.912 35.3352H255.645C255.801 36.0028 256.111 36.5545 256.575 36.9901C257.044 37.4209 257.662 37.6364 258.429 37.6364C259.551 37.6364 260.436 37.1463 261.085 36.1662C261.738 35.1861 262.065 33.8011 262.065 32.0114H261.951C261.686 32.4091 261.371 32.7524 261.007 33.0412C260.642 33.33 260.237 33.5526 259.792 33.7088C259.347 33.8651 258.874 33.9432 258.372 33.9432C257.538 33.9432 256.774 33.7372 256.078 33.3253C255.386 32.9086 254.833 32.3381 254.416 31.6136C254.004 30.8845 253.798 30.0511 253.798 29.1136C253.798 28.2235 253.997 27.4091 254.395 26.6705C254.797 25.9271 255.36 25.3352 256.085 24.8949C256.814 24.4545 257.671 24.2415 258.656 24.2557ZM258.656 25.8182C258.059 25.8182 257.522 25.9673 257.044 26.2656C256.57 26.5592 256.194 26.9569 255.914 27.4588C255.64 27.956 255.502 28.5076 255.502 29.1136C255.502 29.7197 255.635 30.2713 255.9 30.7685C256.17 31.2609 256.537 31.6539 257.001 31.9474C257.47 32.2363 258.002 32.3807 258.599 32.3807C259.049 32.3807 259.468 32.2931 259.856 32.1179C260.244 31.938 260.583 31.6941 260.872 31.3864C261.165 31.0739 261.395 30.7211 261.561 30.3281C261.726 29.9304 261.809 29.5161 261.809 29.0852C261.809 28.517 261.672 27.9844 261.397 27.4872C261.127 26.9901 260.753 26.5876 260.275 26.2798C259.802 25.9721 259.262 25.8182 258.656 25.8182Z" fill="white"/>
<defs>
<clipPath id="clip0_368_1349">
<rect width="69" height="22" fill="white" transform="translate(20 21)"/>
</clipPath>
</defs>
</svg>
