<svg width="706" height="464" viewBox="0 0 706 464" fill="none" xmlns="http://www.w3.org/2000/svg">
<path d="M15.7948 327.428V268.606L127.992 92.1409H181.367V170.57H150.867L90.4113 266.428V268.606H255.984V327.428H15.7948ZM151.412 371V309.455L153.046 283.857V92.1409H223.85V371H151.412ZM451.633 327.428V268.606L563.831 92.1409H617.206V170.57H586.706L526.25 266.428V268.606H691.822V327.428H451.633ZM587.25 371V309.455L588.884 283.857V92.1409H659.688V371H587.25Z" fill="#465262"/>
<path d="M435 228C435 287.647 389.333 336 333 336C266.5 336 231 287.647 231 228C231 168.353 276.667 120 333 120C389.333 120 435 168.353 435 228Z" fill="white"/>
<path d="M476.187 126.599C469.073 117.521 460.32 109.783 450.084 103.8C432.221 93.4316 412.055 89.8725 391.889 92.2968C387.487 90.9041 383.034 89.8209 378.479 89.0987V78.6275H336.202C344.033 74.0882 352.12 70.2711 360.36 67.1762C373.156 62.379 386.31 59.4388 399.362 58.4587C408.779 61.0379 417.941 64.7518 426.642 69.8069C449.214 82.9088 465.899 102.82 476.187 126.651M331.902 370.223C322.485 367.696 313.323 363.93 304.622 358.875C295.665 353.717 287.68 347.424 280.617 340.305H358.006C364.762 341.027 371.62 341.027 378.53 340.305C387.845 339.325 397.212 337.107 406.322 333.703C416.15 330.04 425.721 324.985 434.78 318.641C416.047 338.294 393.987 352.891 370.955 361.506C358.159 366.303 345.005 369.243 331.954 370.223H331.902ZM467.333 73.5208C499.782 92.2968 520.102 125.31 526.654 163.481C533.256 201.703 526.091 244.981 503.621 284.338C481.203 323.696 447.627 351.705 411.543 365.22C398.491 370.12 385.082 373.06 371.774 373.989L375.05 372.802C394.755 365.426 413.795 354.026 430.788 339.067C447.064 324.779 461.6 307.138 473.321 286.608C485.042 266.078 492.822 244.517 496.916 223.162C501.164 200.775 501.42 178.543 497.786 157.652C494.152 136.555 486.628 116.85 475.419 99.8795C465.132 84.3015 451.773 70.9933 435.446 60.9863C446.45 63.5138 457.147 67.6404 467.281 73.4692L467.333 73.5208Z" fill="#FF7B00"/>
<path d="M459.428 286.505C437.061 322.767 405.123 348.713 370.882 361.506C334.849 374.969 296.36 373.937 263.858 355.11C231.408 336.333 211.089 303.321 204.537 265.15C200.033 239.049 201.978 210.575 210.782 182.566C214.467 183.443 218.357 183.959 222.349 183.959H225.42C225.778 193.76 228.952 202.89 234.172 210.472C231.818 225.328 231.92 240.029 234.275 253.905C239.444 283.977 255.464 309.975 281.107 324.831C306.75 339.686 337.152 340.563 365.508 329.937C367.606 329.164 369.705 328.287 371.752 327.41C375.386 328.235 379.122 328.699 382.961 328.699L420.939 327.049L428.156 319.776L459.377 286.505H459.428ZM477.189 129.075C481.13 138.773 484.047 149.038 485.89 159.715C491.162 190.2 487.63 223.935 474.63 256.329L477.189 225.225L477.035 225.07L477.189 224.915V176.944L477.035 176.789L477.189 176.634V129.075ZM426.62 69.8069C449.806 83.2183 466.799 103.903 476.984 128.508L470.023 121.493H434.4C427.49 112.981 419.147 105.76 409.372 100.086C383.729 85.23 353.326 84.3531 324.971 94.9791C309.821 100.653 295.234 109.629 282.182 121.493H242.771C263.91 93.9991 290.985 74.1398 319.597 63.4106C355.629 49.9476 394.119 50.9793 426.62 69.8069Z" fill="#FF7B00"/>
<path fill-rule="evenodd" clip-rule="evenodd" d="M456.167 171.528H464.919V133.872H443.013C449.053 143.879 453.198 154.557 455.297 165.957C455.655 167.814 455.911 169.671 456.218 171.476M185 133.924C185 154.608 201.788 171.579 222.364 171.579H445.214C442.45 157.445 437.792 145.014 430.422 133.924H185Z" fill="#FF7B00"/>
<path fill-rule="evenodd" clip-rule="evenodd" d="M455.179 219.809H464.904V182.153H457.329C458.302 194.997 457.534 207.532 455.179 219.809ZM237.703 182.153C237.703 202.838 254.491 219.809 275.067 219.809H444.789C447.4 207.584 448.167 195.049 446.785 182.153H237.703Z" fill="#FF7B00"/>
<path fill-rule="evenodd" clip-rule="evenodd" d="M436.781 268.038H436.986L438.061 266.181C444.715 254.575 449.628 242.505 452.955 230.383H452.75C449.219 243.279 443.844 255.813 436.781 268.038ZM292.496 230.383C292.496 251.119 309.284 268.038 329.86 268.038H424.6C425.111 267.213 425.623 266.388 426.135 265.562C432.994 254.163 438.419 242.453 442.104 230.383H292.445H292.496Z" fill="#FF7B00"/>
<path fill-rule="evenodd" clip-rule="evenodd" d="M391.82 316.268H391.973C406.202 306.725 419.254 294.036 430.053 278.613H429.951C419.714 293.365 406.714 306.313 391.769 316.268M345.602 278.613C345.602 295.944 357.374 310.594 373.24 314.927C390.284 305.642 405.23 293.52 416.951 278.613H345.602Z" fill="#FF7B00"/>
<path d="M457.137 95.4949C472.031 113.291 481.756 135.471 485.953 159.767C492.556 197.989 485.39 241.267 462.921 280.624C440.451 319.982 406.927 347.991 370.843 361.506C365.315 363.569 359.685 365.323 354.055 366.664V333.548C357.893 332.568 361.732 331.33 365.52 329.937C393.875 319.311 420.234 297.234 437.943 266.181C455.653 235.129 461.334 201.033 456.165 171.012C450.995 140.939 434.975 114.941 409.332 100.086C406.364 98.3835 403.395 96.836 400.324 95.4949H457.137Z" fill="#FF7B00"/>
</svg>
