<svg width="349" height="85" viewBox="0 0 349 85" fill="none" xmlns="http://www.w3.org/2000/svg">
<path d="M196.481 2.38232L153.211 8.04142V20.8607L196.481 16.9949V2.38232Z" fill="#E4003A"/>
<path d="M28.6894 28.1251C21.6249 28.1251 15.8831 32.4883 14.4595 34.2946V29.0588H1.92383V82.6167H14.381V63.5669C15.8434 65.4126 21.5455 69.6973 28.6497 69.6973C40.4387 69.6973 46.9312 63.2921 46.9312 48.8807C46.9312 34.4686 40.4475 28.1251 28.6894 28.1251ZM24.2267 59.3221C16.8043 59.3221 14.4683 56.6213 14.4683 48.8503C14.4683 41.0793 16.7869 38.3784 24.2267 38.3784C31.6666 38.3784 33.9416 41.04 33.9416 48.8503C33.9416 56.6605 31.7015 59.3046 24.2267 59.3046V59.3221Z" fill="#465262"/>
<path d="M64.276 49.0688C64.276 56.8484 66.5947 59.5407 74.0345 59.5407C81.4744 59.5407 83.7541 56.8355 83.7541 49.0688C83.7541 41.3022 81.5093 38.597 74.0345 38.597C66.5589 38.597 64.276 41.2498 64.276 49.0688ZM51.2031 48.9554C51.2031 34.7006 59.1151 28.1777 74.0345 28.1777C88.9539 28.1777 96.9008 34.7007 96.9008 48.9554C96.9008 63.2101 89.0412 69.9594 74.0345 69.9594C59.0278 69.9594 51.2031 63.2095 51.2031 48.9554Z" fill="#465262"/>
<path d="M133.273 53.8898C132.295 58.0043 129.675 59.5401 123.999 59.5401C116.576 59.5401 114.244 56.8349 114.244 49.0683C114.244 41.3016 116.576 38.5964 123.999 38.5964C129.675 38.5964 132.295 40.128 133.277 44.2686L146.35 43.2782C144.398 32.9811 136.744 28.1948 123.999 28.1948C109.079 28.1948 101.172 34.7178 101.172 48.9725C101.172 63.2271 109.031 69.9765 123.999 69.9765C136.735 69.9765 144.311 65.0897 146.31 54.8932L133.273 53.8898Z" fill="#465262"/>
<path d="M188.294 31.7595L153.215 8.05444V20.8428L164.153 28.2602L166.305 29.5168C162.376 29.5648 160.493 30.3632 158.603 31.5065C153.202 34.7657 150.398 40.4991 150.398 48.9595C150.398 63.2143 158.258 69.9636 173.23 69.9636C188.202 69.9636 196.101 63.2137 196.101 48.9595C196.101 40.7088 193.428 35.0666 188.294 31.7595ZM173.23 59.5398C165.807 59.5398 163.471 56.8346 163.471 49.068C163.471 41.3013 165.79 38.5961 173.23 38.5961C180.67 38.5961 182.949 41.249 182.949 49.068C182.949 56.887 180.709 59.5398 173.23 59.5398Z" fill="#465262"/>
<path d="M200.41 48.8813C200.41 63.2799 206.895 69.6979 218.692 69.6979C225.792 69.6979 231.494 65.4132 232.956 63.5675V68.4369H245.418V29.0328H232.883V34.2687C231.45 32.4885 225.709 28.1252 218.649 28.1252C206.89 28.1252 200.41 34.5084 200.41 48.8813ZM213.396 48.8246C213.396 41.0056 215.636 38.3527 223.115 38.3527C230.595 38.3527 232.869 41.0142 232.869 48.8246C232.869 56.6347 230.551 59.2964 223.115 59.2964C215.679 59.2964 213.391 56.6043 213.391 48.8246H213.396Z" fill="#465262"/>
<path d="M281.817 29.0767V43.619H265.278V29.0767H252.742V68.433H265.278V53.6897H281.817V68.433H294.357V29.0767H281.817Z" fill="#465262"/>
<path d="M347.413 68.4283L327.573 47.7642L346.348 29.0767H330.839L314.016 46.1714V29.0767H301.703V68.4283H314.016V50.3079L331.298 68.4283H347.413Z" fill="#465262"/>
</svg>
