<svg width="118" height="118" viewBox="0 0 118 118" fill="none" xmlns="http://www.w3.org/2000/svg">
<path fill-rule="evenodd" clip-rule="evenodd" d="M58.5372 1.94155C53.6731 1.95314 51.6792 2.13658 47.3551 2.99984C31.1743 6.23031 16.904 16.821 8.89873 31.5405C-1.15085 50.0187 -0.0645988 72.7247 11.7058 90.2137C15.4078 95.7143 21.0837 101.463 26.5803 105.279C34.1222 110.514 43.6935 114.06 52.6296 114.929C53.6088 115.025 54.7013 115.131 55.0574 115.165C56.7902 115.333 63.7519 115.098 65.9828 114.796C75.287 113.537 83.6695 110.283 91.1514 105.025C102.326 97.172 110.424 85.4124 113.651 72.3491C117.288 57.6274 114.98 42.1364 107.243 29.3341C99.4879 16.5023 86.9377 7.18216 72.538 3.56152C67.59 2.31743 64.2758 1.9342 58.5372 1.94155ZM57.9928 3.53179C60.9299 3.54835 64.4389 3.67683 65.74 3.863C72.4397 4.82179 78.7128 6.81201 84.22 9.72622C101.563 18.9033 112.84 36.5843 113.677 55.9113L113.781 58.3111L112.722 57.3017C112.14 56.7465 111.296 55.9494 110.849 55.5301C109.458 54.2289 108.019 50.7966 107.196 46.8223L106.844 45.1174L106.907 48.7947C107.139 62.2708 104.009 76.0147 97.8668 88.4858C96.1492 91.9732 94.5395 94.5776 93.2025 96.0326C91.541 97.8408 87.1378 100.924 83.747 102.654C78.3427 105.411 72.6905 106.815 64.9308 107.329C62.6374 107.481 54.4605 107.563 54.3155 107.435C54.2783 107.402 53.3625 107.329 52.28 107.271C45.8264 106.926 39.3529 105.345 34.5354 102.937C30.8706 101.106 25.8969 97.6181 24.3829 95.8187C23.909 95.2555 23.0919 94.1397 22.5671 93.339C21.2811 91.3766 18.498 85.7059 17.1869 82.3767C12.9218 71.5463 10.913 61.3759 10.8823 50.4569C10.8719 46.6832 10.8496 46.3418 10.6716 47.2133C9.98661 50.5692 8.79826 52.6362 6.76172 54.0144C5.52929 54.8483 4.86279 55.5235 4.12759 56.6822L3.66796 57.4069L3.66912 56.3639C3.67008 55.7904 3.77915 54.3021 3.91124 53.0565C5.06521 42.1796 9.05429 32.5014 15.9469 23.8558C17.6207 21.7564 22.1392 17.2617 24.3043 15.5425C31.6062 9.74444 40.2363 5.81667 49.0113 4.29837C50.8092 3.98727 51.2856 3.92289 53.924 3.63399C54.6739 3.55222 56.2306 3.52248 57.9928 3.53179ZM59.1739 11.4852C56.4988 11.4678 53.8408 11.5331 52.4675 11.69C42.961 12.778 34.3896 15.5707 26.3276 20.2072C23.2725 21.9642 21.8479 23.0297 20.0288 24.9173C17.4023 27.6429 16.035 29.9952 14.6073 34.2448C12.1387 41.5922 11.6256 50.0406 12.9878 60.9031C14.0899 69.6917 16.9398 79.2595 20.8294 87.2291C21.9307 89.4855 22.2479 89.9892 23.0852 90.8133C23.6211 91.3407 24.4384 91.9608 24.9016 92.1915C25.8636 92.6707 26.6741 92.7313 26.9926 92.3477C27.2899 91.9896 27.391 88.9835 27.1475 87.7463C27.0437 87.2187 26.6315 85.7131 26.2313 84.4007C22.9819 73.7435 20.4172 60.2644 19.6982 50.064C19.4536 46.5934 19.4924 40.0161 19.773 37.3646C20.2988 32.3949 21.3472 28.5879 22.752 26.5471C23.3346 25.7008 24.8314 24.4855 26.4086 23.5782C31.6925 20.5387 41.1529 18.383 51.982 17.7506C55.2508 17.5598 64.9851 17.6205 67.6823 17.8487C80.0232 18.8922 88.7771 21.2903 93.5205 24.9272C95.0248 26.0806 95.7694 27.1944 96.5386 29.4425C97.8622 33.3113 98.4118 37.6113 98.399 43.9976C98.3768 55.0707 95.9402 70.0042 91.9584 83.4711C90.7121 87.6862 90.59 88.2661 90.5873 89.9877C90.5838 91.9569 90.836 92.6115 91.5969 92.6115C92.3862 92.6115 93.7253 91.883 94.72 90.9123C95.4392 90.2104 95.8062 89.6145 96.873 87.4156C101.042 78.8216 103.824 69.3534 104.901 60.0943C105.405 55.7571 105.453 54.7547 105.406 49.498C105.367 45.0648 105.302 43.8019 105.025 42.0513C104.047 35.8638 102.453 31.2368 100.074 27.6763C99.0233 26.1041 96.8846 23.8442 95.3597 22.6944C92.7525 20.7286 86.9567 17.6639 82.6232 15.9594C77.135 13.8008 72.0277 12.5179 65.9827 11.7803C64.5412 11.6043 61.849 11.5031 59.1739 11.4852ZM59.1038 20.0676C51.4424 20.0676 49.0754 20.2006 43.8893 20.956C35.314 22.2051 28.706 24.4745 25.6829 27.2089C23.6865 29.0147 22.4797 32.8891 21.9457 39.2094C21.708 42.0222 21.8355 49.3192 22.1844 52.8951C23.328 64.6135 26.3487 78.4631 29.9986 88.7213C31.4259 92.7331 31.8077 93.2877 34.249 94.8939C38.8819 97.9422 44.812 99.6023 53.1961 100.198C55.9195 100.391 61.6656 100.398 64.3643 100.21C73.0985 99.6024 78.7473 98.0594 83.5226 94.9764C85.7111 93.5634 86.3855 92.7831 87.167 90.7607C91.024 80.7803 94.1989 66.8662 95.7151 53.2991C95.9311 51.3663 95.9969 49.3639 96.0015 44.5631C96.0073 38.8361 95.9777 38.1494 95.6372 36.0366C94.9498 31.7676 93.8737 28.7653 92.5715 27.4836C89.2082 24.1735 80.9351 21.6167 69.7425 20.4282C66.8127 20.1171 65.4641 20.0719 59.1038 20.0676ZM56.4672 40.5415H70.3754C74.8987 48.2292 76.5359 59.2718 76.0089 78.8084H75.5H70.9937H70.4231C70.3909 74.3989 70.258 65.7775 69.7157 62.9844H62.8162L62.7519 78.8084H62.0932H57.6043H56.9941L56.4672 40.5415ZM29.9668 40.5419H43.6746L43.7102 45.5417H37.116L37.097 57.9938H42.148V62.9405H37.097L37.2291 78.8097H31.2058L29.9668 40.5419ZM46.0554 40.5419H53.1634L53.0373 78.8097H46.8173L46.0554 40.5419ZM75.2133 40.5419H92.1159L92.1531 45.3629H87.2803L86.0024 78.8097H79.985L80.1261 45.3686H75.2131L75.2133 40.5419ZM62.6111 45.2545L62.5429 58.253H69.4631C68.6699 51.978 67.6583 48.1495 66.0838 45.2545H62.6111ZM35.4067 99.5676C34.8893 99.5676 34.7445 99.6283 34.7445 99.8446C34.7445 100.313 36.8408 102.198 38.0813 102.845C40.6558 104.187 46.3186 105.414 52.0631 105.875C54.8486 106.098 65.7332 105.95 68.1679 105.655C73.9136 104.959 78.4412 103.744 80.6501 102.305C81.8501 101.524 82.9776 100.356 82.9776 99.8949C82.9776 99.6226 82.8722 99.5677 82.3481 99.5677C81.5597 99.5677 79.1951 100.05 76.4377 100.774C73.8079 101.465 72.3712 101.733 69.1099 102.144C59.5832 103.345 49.1474 102.806 41.1377 100.698C38.7281 100.064 36.211 99.5676 35.4067 99.5676Z" fill="#A70230"/>
</svg>
