<svg width="216" height="76" viewBox="0 0 216 76" fill="none" xmlns="http://www.w3.org/2000/svg">
<g clip-path="url(#clip0_682_9675)">
<path d="M108 0C48.3294 0 0 16.9852 0 38.0008C0 59.01 48.3326 76 108 76C167.675 76 216 59.0092 216 38.0008C216 16.9844 167.676 0 108 0Z" fill="#00095B"/>
<path d="M108.544 72.6673C51.0838 72.6673 4.50391 56.9759 4.50391 37.6179C4.50391 18.2576 51.0846 2.56689 108.544 2.56689C165.999 2.56689 212.577 18.2568 212.577 37.6179C212.577 56.9751 165.998 72.6673 108.544 72.6673ZM108.544 5.60367C53.1027 5.60367 8.16133 19.9344 8.16133 37.6179C8.16133 55.3022 53.1011 69.6345 108.544 69.6345C163.985 69.6345 208.919 55.3014 208.919 37.6179C208.919 19.9344 163.982 5.60367 108.544 5.60367Z" fill="white"/>
<path d="M81.407 11.2952C79.9305 11.2998 78.4464 11.3559 76.9525 11.4754C67.0293 12.2839 57.584 17.692 57.5669 25.9029C57.5563 30.0666 60.6143 33.4404 65.3526 33.2919C70.9203 33.1091 75.4911 28.7914 77.884 23.3475C78.7918 21.282 77.1104 20.4241 76.3104 21.6133C74.9169 23.6907 72.9758 25.362 70.6918 26.451C68.072 27.6929 65.2718 27.3578 64.4228 25.2987C63.2292 22.3936 65.7102 18.0465 71.3719 16.001C79.5496 13.0704 88.106 15.009 96.3393 16.5062C96.4569 16.5062 96.8954 16.7417 96.5076 16.9372C95.0332 17.7153 93.5816 18.3481 91.3203 20.2316C89.6989 21.5756 87.5763 23.365 85.9346 25.314C84.3051 27.235 83.15 28.9484 81.6218 30.8479C81.4087 31.1224 81.1464 31.1098 81.1497 31.1098C77.4245 31.7187 73.7777 32.1267 70.4387 34.3741C69.748 34.8354 69.4483 35.6542 69.8671 36.2808C70.2434 36.8362 71.1042 36.8952 71.7018 36.4746C73.7762 34.9726 75.9119 34.2655 78.3611 34.2001C78.468 34.2065 78.5195 34.2232 78.5497 34.2871C78.5685 34.323 78.557 34.3987 78.513 34.4545C74.8441 39.3812 73.9254 40.4946 71.1652 43.5489C69.7536 45.1188 68.3651 46.4438 66.814 47.8229C60.5474 53.4583 53.8071 53.3609 51.3889 49.8277C49.9439 47.7071 50.1344 45.4811 51.0814 43.6343C52.2472 41.3725 54.6031 39.7147 56.5624 38.7466C57.2898 38.3875 57.499 37.4872 56.7708 36.6668C56.3079 36.1321 55.1852 36.037 54.3492 36.1855C51.7825 36.6444 48.7495 38.5226 46.9576 40.7828C44.9378 43.3192 43.9289 46.3983 44.2677 49.8541C44.8759 56.0896 50.18 59.6915 56.2017 59.65C60.9933 59.6138 65.5066 58.2085 70.9374 52.8722C75.9998 47.8953 80.6118 40.461 84.9305 33.567C85.0661 33.3467 85.1622 33.2286 85.8186 33.1496C88.5274 32.8216 92.5271 32.4482 95.0906 32.3046C95.6604 32.2742 95.7762 32.2804 96.0048 32.5557C96.6726 33.3714 97.6757 34.0637 98.4791 34.4851C98.8709 34.691 99.0572 34.7937 99.365 34.7985C99.7446 34.8065 100.04 34.6088 100.231 34.3997C100.503 34.1108 100.578 33.7329 100.431 33.4895C100.278 33.2341 98.4899 32.2751 98.4369 31.8872C98.3977 31.6454 98.671 31.5869 98.671 31.5869C99.9854 31.1879 101.353 30.3666 102.181 28.8303C102.995 27.3179 103.127 25.2994 101.638 24.1773C100.331 23.1917 98.3558 23.3472 96.7802 24.7159C95.2388 26.0448 94.7288 27.9781 94.937 29.6725C94.9745 29.9662 94.9589 30.065 94.5451 30.0985C92.1759 30.2821 89.8932 30.3458 87.3542 30.4759C87.1844 30.4878 87.1306 30.3793 87.2293 30.2651C90.1528 25.3488 94.5179 21.8479 99.346 18.4001C99.666 18.1678 99.5683 17.7262 99.5553 17.3575C108.273 19.1907 116.697 22.6027 125.741 22.5301C129.481 22.5006 133.061 21.9499 136.484 20.1327C139.494 18.5436 140.715 17.0736 140.805 15.5461C140.875 14.4902 140.117 13.8228 139.036 14.0502C129.899 16.0822 121.181 16.0598 112.09 14.9951C101.706 13.7751 91.7425 11.2636 81.407 11.2952ZM99.6472 25.5433C99.8608 25.5543 100.061 25.6236 100.222 25.7577C100.704 26.156 100.476 27.1496 99.9894 27.8376C99.4579 28.5966 98.5565 29.2518 97.7344 29.4114C97.5695 29.4409 97.4267 29.3723 97.359 29.0188C97.2251 28.0826 97.5396 26.8289 98.5732 25.9454C98.8967 25.6685 99.2913 25.5248 99.6472 25.5433ZM173.002 25.7227C171.341 25.7227 169.162 25.7255 167.431 25.7255C167.018 25.7255 166.805 25.7743 166.61 26.1454C165.972 27.3306 158.185 38.6263 156.735 40.8203C156.492 41.1539 156.193 41.1074 156.159 40.7267C156.012 39.4242 154.85 37.927 153.019 37.2103C151.623 36.6621 150.258 36.5632 148.84 36.7451C146.279 37.0779 143.997 38.3869 141.99 39.861C138.967 42.0869 136.359 44.9686 132.992 47.0995C131.153 48.2591 128.636 49.2707 126.952 47.7622C125.428 46.3943 125.599 43.3551 127.932 41.0055C128.178 40.7589 128.472 40.9646 128.426 41.1857C128.205 42.2488 128.477 43.3057 129.31 44.0471C130.327 44.929 131.784 45.0296 133.029 44.4406C134.5 43.7359 135.364 42.3732 135.618 40.8265C136.007 38.4282 134.099 36.3126 131.714 36.1434C129.775 36.0117 127.916 36.6646 126.105 38.1123C125.196 38.841 124.679 39.3805 123.895 40.4611C123.703 40.7276 123.409 40.7547 123.419 40.3613C123.51 37.291 122.197 35.5633 119.574 35.5066C117.539 35.4603 115.364 36.5279 113.669 37.8368C111.811 39.2814 110.186 41.1953 108.445 42.9942C108.229 43.2161 108.039 43.2058 107.979 42.7756C107.926 40.7413 107.397 38.7707 106.424 37.3716C106.081 36.8848 105.356 36.6436 104.747 36.9724C104.466 37.1216 103.488 37.5568 102.777 38.1115C102.423 38.3932 102.287 38.8009 102.442 39.3236C103.381 42.362 103.174 45.8178 101.9 48.7372C100.731 51.4093 98.457 53.8213 95.7858 54.637C94.0257 55.1773 92.1952 54.913 91.0629 53.4022C89.5077 51.3175 90.1365 47.6927 92.4534 44.6814C94.5001 42.0317 97.4579 40.3476 100.411 39.263C100.759 39.1337 100.829 38.9185 100.731 38.6328C100.571 38.1619 100.315 37.5231 100.21 37.2301C99.9398 36.5334 99.1813 36.4193 98.2563 36.5175C96.1116 36.7593 94.1777 37.4704 92.2665 38.4608C87.2621 41.0546 84.754 46.0747 83.6535 48.7611C83.1245 50.0501 82.6716 50.8563 82.0863 51.5698C81.2976 52.5299 80.3073 53.403 78.4965 54.9426C78.3332 55.0838 78.2109 55.3782 78.348 55.6511C78.5333 56.0222 79.4745 57.3088 79.7406 57.4237C80.0353 57.5642 80.3772 57.3681 80.5144 57.2724C81.7814 56.4415 83.2974 55.1238 84.0395 54.2299C84.2991 53.9242 84.5673 54.0529 84.7052 54.5174C85.3976 56.9085 87.2104 58.8603 89.7176 59.6768C94.3056 61.1748 99.0652 59.0067 102.657 55.2325C104.94 52.8342 105.764 51.2913 106.639 50.2426C108.122 48.4636 111.047 44.4844 114.531 41.9297C115.809 40.988 117.321 40.2696 118.082 40.7461C118.692 41.1292 118.889 42.0189 117.909 43.7428C114.358 50.0214 109.13 57.3983 108.171 59.1885C107.997 59.4989 108.149 59.7424 108.485 59.7424C110.344 59.7344 112.187 59.7382 113.875 59.7382C114.155 59.7254 114.281 59.6019 114.422 59.4095C117.148 55.2793 119.713 51.3465 122.463 47.2817C122.618 47.0423 122.759 47.2279 122.765 47.3325C122.822 48.275 123.061 49.5657 123.639 50.4133C124.679 51.9792 126.152 52.6519 127.787 52.6622C129.086 52.6766 129.744 52.4852 131.145 51.9784C132.126 51.6221 133.054 51.14 133.905 50.5448C134.315 50.2695 134.387 50.7312 134.376 50.8022C133.746 54.0816 134.525 57.9664 137.892 59.5778C141.922 61.5012 146.348 58.7982 148.895 56.3584C149.144 56.123 149.413 56.1477 149.438 56.6537C149.492 57.5859 149.926 58.6914 150.723 59.4656C152.857 61.5391 157.165 60.7176 161.487 57.4781C164.263 55.4055 167.167 52.4758 169.79 49.3736C169.887 49.2538 169.959 49.0598 169.772 48.865C169.372 48.4604 168.794 47.9973 168.398 47.6406C168.218 47.4921 167.952 47.5346 167.799 47.6472C165.111 50.1221 162.691 52.9451 159.192 55.2795C158.013 56.076 156.133 56.7193 155.288 55.6132C154.959 55.1838 154.997 54.589 155.321 53.8092C156.343 51.3463 172.49 27.5485 173.327 26.147L173.329 26.1454C173.473 25.9011 173.321 25.7227 173.002 25.7227ZM150.377 40.6005C150.8 40.5969 151.196 40.6757 151.556 40.8434C153.545 41.762 152.91 43.9911 152.02 45.7414C151.99 45.7962 151.972 45.8563 151.965 45.9183C151.959 45.9802 151.966 46.0428 151.985 46.1022C152.017 46.2842 152.262 46.4606 152.503 46.5444C152.587 46.5747 152.635 46.6337 152.539 46.8252C151.852 48.2498 151.221 49.0711 150.36 50.3082C149.57 51.4518 148.678 52.3434 147.597 53.2021C145.968 54.507 143.707 55.9268 141.838 54.9723C141.007 54.5541 140.648 53.4294 140.665 52.5188C140.708 49.9569 141.881 47.328 144.054 44.7437C146.207 42.1784 148.545 40.6162 150.377 40.6005Z" fill="white"/>
</g>
<defs>
<clipPath id="clip0_682_9675">
<rect width="216" height="76" fill="white"/>
</clipPath>
</defs>
</svg>
