<svg width="76" height="25" viewBox="0 0 76 25" fill="none" xmlns="http://www.w3.org/2000/svg">
<g clip-path="url(#clip0_14_132)">
<path d="M6.11605 18.506H8.20772C8.73873 18.506 9.20086 18.6908 9.57085 19.054C9.95605 19.403 10.1554 19.8425 10.1554 20.351V25.0001H7.60149V20.5723H2.55389V25.0001H0V13.9307H2.55389V19.05L7.96185 13.9307H11.3191L6.11605 18.506Z" fill="white"/>
<path fill-rule="evenodd" clip-rule="evenodd" d="M20.2131 20.5721H17.7876V18.8854H15.3621V24.9999H12.9365V16.8823H15.3621V17.4147L15.9454 16.8823H18.1918C18.7458 16.8823 19.2265 17.0691 19.6097 17.4331C20.0085 17.7829 20.2131 18.2216 20.2131 18.7272V20.5721Z" fill="white"/>
<path fill-rule="evenodd" clip-rule="evenodd" d="M22.1106 24.4765C22.4851 24.8229 22.9407 24.9999 23.4578 24.9999H26.8532L27.6361 24.3535V24.9999H29.9151V18.7272C29.9151 18.2216 29.7229 17.7829 29.3481 17.4331C28.9881 17.0691 28.5364 16.8823 28.0159 16.8823H23.0835L21.0215 18.8854H27.6361V19.8342H23.4578C22.9348 19.8342 22.4772 20.0225 22.104 20.385C21.7414 20.7373 21.5587 21.1764 21.5587 21.6791V23.155C21.5587 23.6574 21.7409 24.0999 22.0975 24.4637L22.1039 24.4703L22.1106 24.4765ZM23.8377 21.8161V22.9969H27.6361V20.8762L26.652 21.8161H23.8377Z" fill="white"/>
<path fill-rule="evenodd" clip-rule="evenodd" d="M39.6173 12.4546L37.4412 14.4576H33.8605V17.2482L34.2612 16.8824H39.392L37.2159 18.8854H33.8605V25H31.5322V14.2995C31.5322 13.7909 31.7246 13.3499 32.0994 12.9992C32.4847 12.6386 32.9529 12.4546 33.4849 12.4546H39.6173Z" fill="white"/>
<path fill-rule="evenodd" clip-rule="evenodd" d="M46.8937 25.0001H43.4514C42.9331 25.0001 42.4758 24.8322 42.0988 24.5017L42.0921 24.4958L42.0857 24.4897C41.7263 24.1423 41.5417 23.7187 41.5417 23.2368V19.1558H38.8086L40.8886 17.2413H41.5417V16.0355L43.8285 13.9307V17.2413H46.8937V19.1558H43.8285V23.0856H46.8937V25.0001Z" fill="white"/>
<path d="M54.9788 18.8854H50.9363V24.9999H48.5107V16.8823H50.9363V17.4147L51.5196 16.8823H55.3831C55.937 16.8823 56.4177 17.0691 56.8009 17.4331C57.1998 17.7829 57.4044 18.2216 57.4044 18.7272V24.9999H54.9788V18.8854Z" fill="white"/>
<path fill-rule="evenodd" clip-rule="evenodd" d="M58.8004 24.4765C59.1989 24.8229 59.6838 24.9999 60.2342 24.9999H67.1065V22.9969H60.6384V22.0481H65.2527L67.1065 20.356V18.7272C67.1065 18.2216 66.9019 17.7829 66.5031 17.4331C66.1199 17.0691 65.6392 16.8823 65.0852 16.8823H60.2342C59.6775 16.8823 59.1905 17.0707 58.7933 17.4332C58.4074 17.7854 58.2129 18.2245 58.2129 18.7272V23.155C58.2129 23.6574 58.4068 24.0999 58.7864 24.4637L58.7932 24.4703L58.8004 24.4765ZM64.681 20.045V18.8854H60.6384V20.9991L61.6837 20.045H64.681Z" fill="white"/>
<path fill-rule="evenodd" clip-rule="evenodd" d="M76.0001 25.0001H72.5578C72.0396 25.0001 71.5822 24.8322 71.2053 24.5017L71.1985 24.4958L71.1921 24.4897C70.8328 24.1423 70.6482 23.7187 70.6482 23.2368V19.1558H67.915L69.995 17.2413H70.6482V16.0355L72.9349 13.9307V17.2413H76.0001V19.1558H72.9349V23.0856H76.0001V25.0001Z" fill="white"/>
</g>
<path d="M6.03964 0.630854V1.51023C5.76941 1.25534 5.47555 1.0578 5.15804 0.917607C4.77297 0.751928 4.38452 0.669088 3.9927 0.669088C3.21581 0.669088 2.56728 0.927165 2.0471 1.44332C1.53368 1.9531 1.27697 2.58077 1.27697 3.32632C1.27697 4.12923 1.55732 4.76327 2.11804 5.22845C2.6855 5.69362 3.31377 5.92621 4.00284 5.92621C4.43519 5.92621 4.85404 5.82744 5.25937 5.6299C5.5431 5.49608 5.80319 5.31766 6.03964 5.09463V5.974C5.42488 6.3882 4.74595 6.5953 4.00284 6.5953C3.00301 6.5953 2.1687 6.27987 1.4999 5.64902C0.837858 5.01816 0.506836 4.24074 0.506836 3.31677C0.506836 2.3673 0.841236 1.57714 1.51004 0.946282C2.18559 0.315427 3.03004 0 4.04337 0C4.78648 0 5.4519 0.210285 6.03964 0.630854Z" fill="white"/>
<path d="M7.54428 2.51386H10.5032V5.84974H11.1315V7.53202H10.4627V6.4806H7.26054V7.53202H6.59174V5.84974C6.94303 5.84337 7.20312 5.67132 7.37201 5.33359C7.48686 5.11056 7.54428 4.76008 7.54428 4.28216V2.51386ZM9.77361 5.84974V3.14471H8.27388V4.63583C8.27388 5.16472 8.10499 5.56936 7.76721 5.84974H9.77361Z" fill="white"/>
<path d="M15.0223 5.15198L15.6303 5.46741C15.4884 5.7223 15.3161 5.93577 15.1135 6.10782C14.7284 6.43281 14.2623 6.5953 13.7151 6.5953C13.1476 6.5953 12.6578 6.42325 12.2457 6.07914C11.8404 5.72867 11.6377 5.20933 11.6377 4.52112C11.6377 3.91576 11.8201 3.41554 12.1849 3.02046C12.5565 2.619 13.053 2.41828 13.6745 2.41828C14.3771 2.41828 14.9074 2.66042 15.2655 3.14471C15.5492 3.52705 15.6809 4.02409 15.6607 4.63583H12.3876C12.3944 5.03728 12.5261 5.36226 12.7828 5.61078C13.0395 5.8593 13.3537 5.98356 13.7252 5.98356C14.0562 5.98356 14.3433 5.88798 14.5865 5.69681C14.7757 5.54387 14.9209 5.36226 15.0223 5.15198ZM12.4383 4.06232H14.9108C14.85 3.75008 14.7048 3.50156 14.4751 3.31677C14.2521 3.1256 13.9853 3.03001 13.6745 3.03001C13.3705 3.03001 13.1003 3.12878 12.8639 3.32632C12.6342 3.51749 12.4923 3.76282 12.4383 4.06232Z" fill="white"/>
<path d="M19.9617 2.51386V6.4806H19.2321V3.14471H17.7324V4.93214C17.7324 5.44829 17.6243 5.83063 17.4081 6.07914C17.1649 6.35952 16.8271 6.49971 16.3948 6.49971C16.3407 6.49971 16.2664 6.49334 16.1719 6.4806V5.84974C16.2394 5.86249 16.2935 5.86886 16.334 5.86886C16.5704 5.86886 16.7461 5.78283 16.8609 5.61078C16.9555 5.47059 17.0028 5.24438 17.0028 4.93214V2.51386H19.9617Z" fill="white"/>
<path d="M24.5642 3.07781V2.51386H25.2938V6.4806H24.5642V5.92621C24.1994 6.37227 23.7198 6.5953 23.1253 6.5953C22.5578 6.5953 22.0748 6.4105 21.6762 6.04091C21.2777 5.67132 21.0784 5.15517 21.0784 4.49245C21.0784 3.84248 21.2743 3.33588 21.6661 2.97266C22.0647 2.60307 22.5511 2.41828 23.1253 2.41828C23.7333 2.41828 24.2129 2.63812 24.5642 3.07781ZM23.2064 3.03001C22.8213 3.03001 22.4937 3.16065 22.2234 3.42191C21.96 3.6768 21.8282 4.03365 21.8282 4.49245C21.8282 4.93214 21.9498 5.29217 22.193 5.57255C22.443 5.84656 22.7808 5.98356 23.2064 5.98356C23.632 5.98356 23.9697 5.84018 24.2197 5.55343C24.4764 5.26668 24.6048 4.9162 24.6048 4.50201C24.6048 4.03046 24.4629 3.66724 24.1792 3.41235C23.8954 3.15746 23.5712 3.03001 23.2064 3.03001Z" fill="white"/>
<path d="M26.6757 6.4806V2.51386H27.4053V4.13879H29.3914V2.51386H30.121V6.4806H29.3914V4.76964H27.4053V6.4806H26.6757Z" fill="white"/>
<path d="M35.0518 6.00268C34.6329 6.39776 34.1026 6.5953 33.4608 6.5953C32.8191 6.5953 32.2854 6.39776 31.8598 6.00268C31.4409 5.6076 31.2315 5.11056 31.2315 4.51157C31.2315 3.9062 31.4409 3.40598 31.8598 3.0109C32.2854 2.61582 32.8191 2.41828 33.4608 2.41828C34.1026 2.41828 34.6329 2.61582 35.0518 3.0109C35.4774 3.40598 35.6902 3.9062 35.6902 4.51157C35.6902 5.11056 35.4774 5.6076 35.0518 6.00268ZM34.5046 3.42191C34.2208 3.16065 33.8729 3.03001 33.4608 3.03001C33.0487 3.03001 32.6975 3.16383 32.407 3.43147C32.1232 3.69273 31.9814 4.05276 31.9814 4.51157C31.9814 4.97037 32.1266 5.3304 32.4171 5.59167C32.7076 5.85293 33.0555 5.98356 33.4608 5.98356C33.8662 5.98356 34.2141 5.85293 34.5046 5.59167C34.7951 5.3304 34.9403 4.97037 34.9403 4.51157C34.9403 4.04639 34.7951 3.68317 34.5046 3.42191Z" fill="white"/>
<path d="M39.1741 2.51386H40.7651C41.1501 2.51386 41.444 2.59033 41.6467 2.74326C41.8899 2.92806 42.0115 3.17658 42.0115 3.48882C42.0115 3.83292 41.8595 4.09737 41.5555 4.28216C41.7649 4.33314 41.9405 4.42235 42.0824 4.5498C42.3053 4.75371 42.4168 5.0086 42.4168 5.31447C42.4168 5.69681 42.2715 5.9963 41.9811 6.21296C41.7311 6.39139 41.4001 6.4806 40.988 6.4806H39.1741V2.51386ZM39.9037 4.12923H40.6739C40.8698 4.12923 41.0252 4.091 41.14 4.01453C41.2751 3.91895 41.3427 3.78194 41.3427 3.60352C41.3427 3.44421 41.2751 3.31677 41.14 3.22118C41.0387 3.15746 40.8428 3.1256 40.5523 3.1256H39.9037V4.12923ZM39.9037 5.86886H40.8056C41.1163 5.86886 41.3359 5.82425 41.4643 5.73504C41.6264 5.62034 41.7075 5.47378 41.7075 5.29535C41.7075 5.10419 41.6365 4.95444 41.4947 4.84611C41.3663 4.75053 41.1467 4.70273 40.836 4.70273H39.9037V5.86886Z" fill="white"/>
<defs>
<clipPath id="clip0_14_132">
<rect width="76" height="12.5454" fill="white" transform="translate(0 12.4546)"/>
</clipPath>
</defs>
</svg>
