<svg width="24" height="24" viewBox="0 0 24 24" fill="none" xmlns="http://www.w3.org/2000/svg">
<g clip-path="url(#clip0_654_3692)">
<path d="M15.0665 11.4419L5.57812 9.76794V22.1371C5.57812 22.702 6.03617 23.1599 6.60119 23.1599H22.9737C23.5387 23.1599 23.9967 22.702 23.9967 22.1371V17.5799L15.0665 11.4419Z" fill="#185C37"/>
<path d="M15.0665 0.839966H6.60119C6.03617 0.839966 5.57812 1.29789 5.57812 1.86278V6.41997L15.0665 12L20.0898 13.674L23.9967 12V6.41997L15.0665 0.839966Z" fill="#21A366"/>
<path d="M5.57812 6.41992H15.0665V11.9999H5.57812V6.41992Z" fill="#107C41"/>
<path opacity="0.1" d="M12.369 5.30396H5.57812V19.254H12.369C12.9333 19.2521 13.3902 18.7953 13.3921 18.2311V6.32677C13.3902 5.76265 12.9333 5.30579 12.369 5.30396Z" fill="black"/>
<path opacity="0.2" d="M11.8109 5.86194H5.57812V19.8119H11.8109C12.3751 19.8101 12.8321 19.3532 12.8339 18.7891V6.88475C12.8321 6.32063 12.3751 5.86377 11.8109 5.86194Z" fill="black"/>
<path opacity="0.2" d="M11.8109 5.86194H5.57812V18.6959H11.8109C12.3751 18.6941 12.8321 18.2372 12.8339 17.6731V6.88475C12.8321 6.32063 12.3751 5.86377 11.8109 5.86194Z" fill="black"/>
<path opacity="0.2" d="M11.2527 5.86194H5.57812V18.6959H11.2527C11.817 18.6941 12.274 18.2372 12.2758 17.6731V6.88475C12.274 6.32063 11.817 5.86377 11.2527 5.86194Z" fill="black"/>
<path d="M1.02307 5.86194H11.256C11.821 5.86194 12.2791 6.31987 12.2791 6.88475V17.1151C12.2791 17.68 11.821 18.1379 11.256 18.1379H1.02307C0.458041 18.1379 0 17.68 0 17.1151V6.88475C0 6.31987 0.458041 5.86194 1.02307 5.86194Z" fill="url(#paint0_linear_654_3692)"/>
<path d="M3.17188 15.3245L5.32406 11.9904L3.35216 8.6748H4.93838L6.01448 10.7952C6.11383 10.9966 6.18192 11.1462 6.21876 11.2449H6.23271C6.30341 11.0842 6.37783 10.9282 6.45597 10.7768L7.60629 8.67593H9.06247L7.04033 11.972L9.11383 15.3245H7.56444L6.32146 12.9971C6.26291 12.8981 6.21323 12.794 6.173 12.6863H6.15458C6.11817 12.7918 6.06986 12.8929 6.01058 12.9876L4.73077 15.3245H3.17188Z" fill="white"/>
<path d="M22.9775 0.839966H15.0703V6.41997H24.0005V1.86278C24.0005 1.29789 23.5425 0.839966 22.9775 0.839966Z" fill="#33C481"/>
<path d="M15.0703 12H24.0005V17.58H15.0703V12Z" fill="#107C41"/>
</g>
<defs>
<linearGradient id="paint0_linear_654_3692" x1="2.13312" y1="5.06273" x2="10.1429" y2="18.9389" gradientUnits="userSpaceOnUse">
<stop stop-color="#18884F"/>
<stop offset="0.5" stop-color="#117E43"/>
<stop offset="1" stop-color="#0B6631"/>
</linearGradient>
<clipPath id="clip0_654_3692">
<rect width="24" height="24" fill="white"/>
</clipPath>
</defs>
</svg>
