<svg width="235" height="60" viewBox="0 0 235 60" fill="none" xmlns="http://www.w3.org/2000/svg">
<path d="M99.3694 18.4374H95.8405C95.776 17.9773 95.6445 17.5686 95.4457 17.2113C95.247 16.8486 94.9918 16.5401 94.6803 16.2857C94.3688 16.0312 94.0089 15.8364 93.6007 15.701C93.1978 15.5657 92.7601 15.498 92.2874 15.498C91.4334 15.498 90.6894 15.7119 90.0556 16.1395C89.4218 16.5617 88.9303 17.1788 88.5812 17.9908C88.2321 18.7974 88.0575 19.7772 88.0575 20.9302C88.0575 22.1157 88.2321 23.1117 88.5812 23.9183C88.9357 24.7249 89.4299 25.3339 90.0637 25.7453C90.6975 26.1567 91.4307 26.3624 92.2632 26.3624C92.7305 26.3624 93.1629 26.3001 93.5604 26.1756C93.9632 26.0511 94.3204 25.8698 94.632 25.6316C94.9435 25.388 95.2013 25.093 95.4054 24.7465C95.6149 24.4001 95.7599 24.0049 95.8405 23.561L99.3694 23.5773C99.2781 24.3405 99.0498 25.0767 98.6846 25.7859C98.3247 26.4896 97.8386 27.1202 97.2263 27.6778C96.6193 28.2299 95.8942 28.6684 95.0509 28.9932C94.213 29.3126 93.265 29.4723 92.2068 29.4723C90.7351 29.4723 89.4191 29.1367 88.2589 28.4654C87.1041 27.7942 86.191 26.8225 85.5196 25.5504C84.8535 24.2783 84.5205 22.7382 84.5205 20.9302C84.5205 19.1168 84.8589 17.574 85.5357 16.3019C86.2125 15.0298 87.131 14.0608 88.2912 13.395C89.4514 12.7238 90.7566 12.3881 92.2068 12.3881C93.1629 12.3881 94.0492 12.5235 94.8656 12.7941C95.6874 13.0648 96.4152 13.46 97.049 13.9796C97.6829 14.4939 98.1985 15.1245 98.596 15.8716C98.9988 16.6186 99.2566 17.4739 99.3694 18.4374Z" fill="white"/>
<path d="M101.871 12.6155H105.352V23.0738H105.489L112.619 12.6155H115.673V29.2449H112.184V18.7785H112.063L104.892 29.2449H101.871V12.6155Z" fill="white"/>
<path d="M118.555 29.2449V12.6155H129.504V15.5143H122.044V18.7622H124.727C126.032 18.7622 127.157 18.976 128.102 19.4037C129.053 19.8259 129.786 20.4241 130.302 21.1982C130.818 21.9723 131.075 22.8844 131.075 23.9345C131.075 24.9793 130.818 25.9023 130.302 26.7034C129.786 27.4992 129.053 28.1217 128.102 28.571C127.157 29.0203 126.032 29.2449 124.727 29.2449H118.555ZM122.044 26.4192H124.727C125.35 26.4192 125.876 26.3055 126.306 26.0782C126.735 25.8454 127.06 25.5396 127.281 25.1606C127.506 24.7763 127.619 24.3568 127.619 23.9021C127.619 23.2417 127.369 22.6841 126.87 22.2294C126.376 21.7693 125.661 21.5392 124.727 21.5392H122.044V26.4192Z" fill="white"/>
<path d="M133.333 12.6155H136.814V23.0738H136.951L144.081 12.6155H147.135V29.2449H143.646V18.7785H143.525L136.355 29.2449H133.333V12.6155Z" fill="white"/>
<path d="M150.017 29.2449V12.6155H156.527C157.779 12.6155 158.845 12.8564 159.726 13.3382C160.607 13.8145 161.278 14.4777 161.74 15.3275C162.207 16.172 162.441 17.1464 162.441 18.2507C162.441 19.355 162.205 20.3293 161.732 21.1738C161.259 22.0183 160.575 22.676 159.678 23.1469C158.786 23.6179 157.706 23.8534 156.439 23.8534H152.289V21.0358H155.875C156.546 21.0358 157.099 20.9194 157.534 20.6866C157.975 20.4484 158.303 20.1209 158.517 19.7041C158.738 19.2819 158.848 18.7974 158.848 18.2507C158.848 17.6985 158.738 17.2167 158.517 16.8053C158.303 16.3885 157.975 16.0664 157.534 15.8391C157.094 15.6063 156.535 15.4899 155.859 15.4899H153.506V29.2449H150.017Z" fill="white"/>
<path d="M179.266 18.4374H175.737C175.673 17.9773 175.541 17.5686 175.342 17.2113C175.144 16.8486 174.888 16.5401 174.577 16.2857C174.265 16.0312 173.905 15.8364 173.497 15.701C173.094 15.5657 172.657 15.498 172.184 15.498C171.33 15.498 170.586 15.7119 169.952 16.1395C169.318 16.5617 168.827 17.1788 168.478 17.9908C168.129 18.7974 167.954 19.7772 167.954 20.9302C167.954 22.1157 168.129 23.1117 168.478 23.9183C168.832 24.7249 169.326 25.3339 169.96 25.7453C170.594 26.1567 171.327 26.3624 172.16 26.3624C172.627 26.3624 173.06 26.3001 173.457 26.1756C173.86 26.0511 174.217 25.8698 174.529 25.6316C174.84 25.388 175.098 25.093 175.302 24.7465C175.512 24.4001 175.657 24.0049 175.737 23.561L179.266 23.5773C179.175 24.3405 178.946 25.0767 178.581 25.7859C178.221 26.4896 177.735 27.1202 177.123 27.6778C176.516 28.2299 175.791 28.6684 174.948 28.9932C174.11 29.3126 173.162 29.4723 172.103 29.4723C170.632 29.4723 169.316 29.1367 168.156 28.4654C167.001 27.7942 166.088 26.8225 165.416 25.5504C164.75 24.2783 164.417 22.7382 164.417 20.9302C164.417 19.1168 164.756 17.574 165.432 16.3019C166.109 15.0298 167.028 14.0608 168.188 13.395C169.348 12.7238 170.653 12.3881 172.103 12.3881C173.06 12.3881 173.946 12.5235 174.762 12.7941C175.584 13.0648 176.312 13.46 176.946 13.9796C177.579 14.4939 178.095 15.1245 178.493 15.8716C178.895 16.6186 179.153 17.4739 179.266 18.4374Z" fill="white"/>
<path d="M191.75 29.2449L186.449 22.1563H185.256V29.2449H181.768V12.6155H185.256V19.2575H185.957L191.436 12.6155H195.779L189.341 20.3293L196.077 29.2449H191.75Z" fill="white"/>
<path d="M197.831 12.6155H201.312V23.0738H201.449L208.579 12.6155H211.633V29.2449H208.144V18.7785H208.023L200.853 29.2449H197.831V12.6155Z" fill="white"/>
<path d="M214.515 12.6155H217.996V23.0738H218.133L225.263 12.6155H228.317V29.2449H224.828V18.7785H224.707L217.536 29.2449H214.515V12.6155ZM223.023 8.26328H225.416C225.411 9.24848 225.048 10.0415 224.328 10.6424C223.614 11.2433 222.647 11.5437 221.428 11.5437C220.203 11.5437 219.234 11.2433 218.519 10.6424C217.805 10.0415 217.448 9.24848 217.448 8.26328H219.825C219.819 8.63679 219.937 8.97241 220.179 9.27013C220.426 9.56786 220.842 9.71673 221.428 9.71673C221.997 9.71673 222.406 9.57057 222.653 9.27825C222.9 8.98594 223.023 8.64761 223.023 8.26328Z" fill="white"/>
<path d="M84.4326 40.9985V39.376H92.0175V40.9985H89.1901V48.6834H87.26V40.9985H84.4326Z" fill="white"/>
<path d="M93.2666 48.6834V39.376H96.9102C97.6107 39.376 98.2074 39.5109 98.7004 39.7805C99.1935 40.0471 99.5693 40.4183 99.8278 40.894C100.089 41.3666 100.22 41.9119 100.22 42.53C100.22 43.1481 100.088 43.6934 99.8233 44.1661C99.5587 44.6387 99.1754 45.0068 98.6734 45.2704C98.1743 45.534 97.5701 45.6658 96.8606 45.6658H94.5382V44.0888H96.5449C96.9207 44.0888 97.2304 44.0237 97.4739 43.8934C97.7204 43.7601 97.9038 43.5768 98.024 43.3435C98.1473 43.1072 98.2089 42.836 98.2089 42.53C98.2089 42.221 98.1473 41.9513 98.024 41.7211C97.9038 41.4878 97.7204 41.3075 97.4739 41.1803C97.2274 41.05 96.9147 40.9848 96.5359 40.9848H95.2192V48.6834H93.2666Z" fill="white"/>
<path d="M102.014 48.6834H99.9217L103.11 39.376H105.626L108.81 48.6834H106.717L104.404 41.5029H104.332L102.014 48.6834ZM101.883 45.025H106.826V46.5611H101.883V45.025Z" fill="white"/>
<path d="M109.921 48.6834V39.376H111.874V43.2163H115.838V39.376H117.786V48.6834H115.838V44.8387H111.874V48.6834H109.921Z" fill="white"/>
<path d="M127.544 42.6345H125.569C125.533 42.377 125.459 42.1483 125.348 41.9483C125.237 41.7453 125.094 41.5726 124.92 41.4302C124.745 41.2878 124.544 41.1787 124.315 41.103C124.09 41.0273 123.845 40.9894 123.58 40.9894C123.102 40.9894 122.686 41.1091 122.331 41.3484C121.977 41.5847 121.701 41.9301 121.506 42.3846C121.311 42.836 121.213 43.3844 121.213 44.0297C121.213 44.6933 121.311 45.2507 121.506 45.7022C121.704 46.1536 121.981 46.4944 122.336 46.7247C122.691 46.955 123.101 47.0701 123.567 47.0701C123.828 47.0701 124.07 47.0353 124.293 46.9656C124.518 46.8959 124.718 46.7944 124.893 46.6611C125.067 46.5247 125.211 46.3596 125.326 46.1657C125.443 45.9718 125.524 45.7506 125.569 45.5022L127.544 45.5113C127.493 45.9385 127.365 46.3505 127.161 46.7474C126.959 47.1413 126.687 47.4943 126.345 47.8063C126.005 48.1154 125.599 48.3608 125.127 48.5426C124.658 48.7213 124.128 48.8107 123.535 48.8107C122.712 48.8107 121.975 48.6229 121.326 48.2472C120.679 47.8715 120.168 47.3276 119.792 46.6156C119.42 45.9036 119.233 45.0417 119.233 44.0297C119.233 43.0148 119.423 42.1513 119.801 41.4393C120.18 40.7273 120.694 40.185 121.344 39.8123C121.993 39.4366 122.724 39.2488 123.535 39.2488C124.07 39.2488 124.566 39.3245 125.023 39.476C125.483 39.6275 125.891 39.8487 126.245 40.1395C126.6 40.4274 126.889 40.7803 127.111 41.1984C127.337 41.6165 127.481 42.0952 127.544 42.6345Z" fill="white"/>
<path d="M136.795 39.376V48.6834H134.865V40.9758H131.131V48.6834H129.201V39.376H136.795Z" fill="white"/>
<path d="M147.141 44.0297C147.141 45.0447 146.95 45.9082 146.568 46.6202C146.19 47.3322 145.672 47.876 145.017 48.2517C144.365 48.6244 143.631 48.8107 142.816 48.8107C141.996 48.8107 141.259 48.6229 140.607 48.2472C139.954 47.8715 139.439 47.3276 139.06 46.6156C138.681 45.9036 138.492 45.0417 138.492 44.0297C138.492 43.0148 138.681 42.1513 139.06 41.4393C139.439 40.7273 139.954 40.185 140.607 39.8123C141.259 39.4366 141.996 39.2488 142.816 39.2488C143.631 39.2488 144.365 39.4366 145.017 39.8123C145.672 40.185 146.19 40.7273 146.568 41.4393C146.95 42.1513 147.141 43.0148 147.141 44.0297ZM145.161 44.0297C145.161 43.3723 145.064 42.8178 144.868 42.3664C144.676 41.915 144.404 41.5726 144.052 41.3393C143.7 41.106 143.288 40.9894 142.816 40.9894C142.344 40.9894 141.933 41.106 141.581 41.3393C141.229 41.5726 140.956 41.915 140.76 42.3664C140.568 42.8178 140.472 43.3723 140.472 44.0297C140.472 44.6872 140.568 45.2416 140.76 45.6931C140.956 46.1445 141.229 46.4869 141.581 46.7202C141.933 46.9535 142.344 47.0701 142.816 47.0701C143.288 47.0701 143.7 46.9535 144.052 46.7202C144.404 46.4869 144.676 46.1445 144.868 45.6931C145.064 45.2416 145.161 44.6872 145.161 44.0297Z" fill="white"/>
<path d="M148.587 48.6834V39.376H152.231C152.931 39.376 153.528 39.5109 154.021 39.7805C154.514 40.0471 154.89 40.4183 155.149 40.894C155.41 41.3666 155.541 41.9119 155.541 42.53C155.541 43.1481 155.409 43.6934 155.144 44.1661C154.88 44.6387 154.496 45.0068 153.994 45.2704C153.495 45.534 152.891 45.6658 152.181 45.6658H149.859V44.0888H151.866C152.242 44.0888 152.551 44.0237 152.795 43.8934C153.041 43.7601 153.225 43.5768 153.345 43.3435C153.468 43.1072 153.53 42.836 153.53 42.53C153.53 42.221 153.468 41.9513 153.345 41.7211C153.225 41.4878 153.041 41.3075 152.795 41.1803C152.548 41.05 152.236 40.9848 151.857 40.9848H150.54V48.6834H148.587Z" fill="white"/>
<path d="M156.457 40.9985V39.376H164.042V40.9985H161.215V48.6834H159.285V40.9985H156.457Z" fill="white"/>
<path d="M165.291 48.6834V39.376H167.244V43.2163H171.208V39.376H173.156V48.6834H171.208V44.8387H167.244V48.6834H165.291Z" fill="white"/>
<path d="M176.051 42.8163H178.252C178.985 42.8163 179.616 42.936 180.146 43.1754C180.678 43.4117 181.088 43.7465 181.377 44.1797C181.665 44.613 181.808 45.1235 181.805 45.7113C181.808 46.296 181.665 46.8126 181.377 47.261C181.088 47.7064 180.678 48.0548 180.146 48.3062C179.616 48.5577 178.985 48.6834 178.252 48.6834H174.802V39.376H176.75V47.1019H178.252C178.603 47.1019 178.899 47.0383 179.14 46.911C179.38 46.7808 179.562 46.6096 179.686 46.3975C179.812 46.1824 179.873 45.9476 179.87 45.6931C179.873 45.3235 179.735 45.0114 179.456 44.7569C179.179 44.4994 178.778 44.3706 178.252 44.3706H176.051V42.8163ZM184.506 39.376V48.6834H182.558V39.376H184.506Z" fill="white"/>
<path d="M186.113 39.376H188.061V45.2295H188.137L192.128 39.376H193.837V48.6834H191.885V42.8254H191.817L187.804 48.6834H186.113V39.376ZM190.875 36.9401H192.214C192.211 37.4915 192.008 37.9354 191.605 38.2717C191.205 38.608 190.664 38.7762 189.982 38.7762C189.296 38.7762 188.754 38.608 188.354 38.2717C187.954 37.9354 187.754 37.4915 187.754 36.9401H189.084C189.081 37.1492 189.147 37.337 189.283 37.5037C189.421 37.6703 189.654 37.7536 189.982 37.7536C190.3 37.7536 190.529 37.6718 190.667 37.5082C190.805 37.3446 190.875 37.1552 190.875 36.9401Z" fill="white"/>
<path d="M197.889 50.9285V47.1156H198.516C198.729 46.961 198.925 46.7429 199.102 46.4611C199.279 46.1763 199.431 45.784 199.557 45.2841C199.684 44.7811 199.774 44.1237 199.828 43.3117L200.09 39.376H206.2V47.1156H207.21V50.9194H205.334V48.6834H199.765V50.9285H197.889ZM200.771 47.1156H204.324V40.9985H201.848L201.704 43.3117C201.665 43.9267 201.6 44.4721 201.51 44.9478C201.423 45.4234 201.316 45.84 201.19 46.1975C201.067 46.552 200.927 46.858 200.771 47.1156Z" fill="white"/>
<path d="M216.884 44.0297C216.884 45.0447 216.693 45.9082 216.311 46.6202C215.932 47.3322 215.415 47.876 214.76 48.2517C214.107 48.6244 213.374 48.8107 212.559 48.8107C211.739 48.8107 211.002 48.6229 210.35 48.2472C209.697 47.8715 209.182 47.3276 208.803 46.6156C208.424 45.9036 208.235 45.0417 208.235 44.0297C208.235 43.0148 208.424 42.1513 208.803 41.4393C209.182 40.7273 209.697 40.185 210.35 39.8123C211.002 39.4366 211.739 39.2488 212.559 39.2488C213.374 39.2488 214.107 39.4366 214.76 39.8123C215.415 40.185 215.932 40.7273 216.311 41.4393C216.693 42.1513 216.884 43.0148 216.884 44.0297ZM214.904 44.0297C214.904 43.3723 214.806 42.8178 214.611 42.3664C214.419 41.915 214.147 41.5726 213.795 41.3393C213.443 41.106 213.031 40.9894 212.559 40.9894C212.087 40.9894 211.675 41.106 211.324 41.3393C210.972 41.5726 210.698 41.915 210.503 42.3664C210.311 42.8178 210.214 43.3723 210.214 44.0297C210.214 44.6872 210.311 45.2416 210.503 45.6931C210.698 46.1445 210.972 46.4869 211.324 46.7202C211.675 46.9535 212.087 47.0701 212.559 47.0701C213.031 47.0701 213.443 46.9535 213.795 46.7202C214.147 46.4869 214.419 46.1445 214.611 45.6931C214.806 45.2416 214.904 44.6872 214.904 44.0297Z" fill="white"/>
<path d="M218.33 39.376H220.738L223.282 45.6295H223.39L225.933 39.376H228.341V48.6834H226.447V42.6255H226.371L223.981 48.638H222.691L220.301 42.6027H220.224V48.6834H218.33V39.376Z" fill="white"/>
<path d="M54.6462 13.5624C53.311 11.8587 51.6685 10.4066 49.7474 9.28364C46.395 7.33785 42.6104 6.66989 38.8258 7.12488C37.9998 6.86351 37.1641 6.66021 36.3092 6.52469V4.55954H28.375C29.8446 3.70765 31.3623 2.99129 32.9088 2.41046C35.3102 1.51017 37.7788 0.958375 40.2283 0.774445C41.9957 1.25847 43.7151 1.95547 45.348 2.90416C49.5841 5.36302 52.7155 9.09971 54.6462 13.5721M27.5681 59.2836C25.8007 58.8093 24.0813 58.1026 22.4484 57.1539C20.7674 56.1859 19.2689 55.0048 17.9434 53.6689H32.467C33.7349 53.8045 35.022 53.8045 36.3188 53.6689C38.067 53.485 39.8248 53.0687 41.5346 52.4298C43.3789 51.7425 45.1751 50.7938 46.8753 49.6031C43.3597 53.2914 39.2197 56.031 34.8972 57.6476C32.4958 58.5479 30.0272 59.0997 27.5777 59.2836H27.5681ZM52.9844 3.60116C59.0744 7.12488 62.8878 13.3204 64.1173 20.484C65.3564 27.6573 64.0116 35.7793 59.7948 43.1655C55.5875 50.5518 49.2863 55.8083 42.5144 58.3446C40.065 59.2643 37.5483 59.8161 35.0509 59.9903L35.6656 59.7677C39.3638 58.3834 42.937 56.2439 46.1261 53.4366C49.1806 50.7551 51.9086 47.4443 54.1083 43.5915C56.308 39.7386 57.768 35.6922 58.5365 31.6844C59.3337 27.4831 59.3817 23.3107 58.6997 19.3901C58.0178 15.4308 56.6057 11.7328 54.5021 8.54792C52.5714 5.6244 50.0644 3.12682 47.0002 1.24879C49.0654 1.72314 51.0729 2.49758 52.9748 3.59148L52.9844 3.60116Z" fill="white"/>
<path d="M51.5047 43.5721C47.3071 50.3775 41.3132 55.2469 34.8871 57.6476C28.1248 60.1743 20.9014 59.9806 14.8019 56.4472C8.71196 52.9235 4.89856 46.728 3.66904 39.5644C2.82375 34.666 3.18877 29.3224 4.84092 24.0658C5.53252 24.2304 6.26254 24.3272 7.01178 24.3272H7.58811C7.65535 26.1665 8.2509 27.88 9.23066 29.303C8.78881 32.091 8.80802 34.85 9.24987 37.454C10.22 43.0978 13.2266 47.9768 18.039 50.7648C22.8513 53.5528 28.557 53.7173 33.8785 51.7231C34.2724 51.5779 34.6662 51.4134 35.0504 51.2488C35.7324 51.4037 36.4336 51.4908 37.154 51.4908L44.2813 51.181L45.6357 49.8161L51.4951 43.5721H51.5047ZM54.8379 14.0271C55.5775 15.847 56.125 17.7735 56.4708 19.7773C57.4602 25.4986 56.7974 31.8296 54.3576 37.909L54.8379 32.0716L54.809 32.0426L54.8379 32.0136V23.0107L54.809 22.9816L54.8379 22.9526V14.0271ZM45.3476 2.90416C49.6989 5.4211 52.8879 9.303 54.7994 13.9206L53.4931 12.6041H46.8076C45.5109 11.0068 43.9452 9.6515 42.1105 8.58664C37.2981 5.79865 31.5924 5.63408 26.2709 7.62827C23.4277 8.69313 20.6901 10.3775 18.2407 12.6041H10.8444C14.8115 7.44434 19.8928 3.71733 25.2623 1.70378C32.0247 -0.822845 39.248 -0.629234 45.3476 2.90416Z" fill="white"/>
<path fill-rule="evenodd" clip-rule="evenodd" d="M50.8902 21.9942H52.5328V14.9274H48.4216C49.5551 16.8054 50.3331 18.8093 50.727 20.9487C50.7942 21.2972 50.8422 21.6457 50.8999 21.9845M0 14.9371C0 18.819 3.15062 22.0039 7.01206 22.0039H48.8347C48.316 19.3514 47.4419 17.0184 46.0587 14.9371H0Z" fill="white"/>
<path fill-rule="evenodd" clip-rule="evenodd" d="M50.7076 31.0552H52.5326V23.9884H51.111C51.2935 26.3988 51.1494 28.7512 50.7076 31.0552ZM9.89355 23.9884C9.89355 27.8703 13.0442 31.0552 16.9056 31.0552H48.7576C49.2475 28.7609 49.3916 26.4085 49.1323 23.9884H9.89355Z" fill="white"/>
<path fill-rule="evenodd" clip-rule="evenodd" d="M47.2498 40.1065H47.2882L47.4899 39.758C48.7386 37.5799 49.6608 35.3146 50.2851 33.0397H50.2467C49.5839 35.4598 48.5754 37.8122 47.2498 40.1065ZM20.1717 33.0397C20.1717 36.9313 23.3223 40.1065 27.1838 40.1065H44.9637C45.0597 39.9516 45.1558 39.7967 45.2518 39.6418C46.539 37.5024 47.5572 35.3049 48.2488 33.0397H20.1621H20.1717Z" fill="white"/>
<path fill-rule="evenodd" clip-rule="evenodd" d="M38.8164 49.1578H38.8452C41.5156 47.3669 43.965 44.9855 45.9918 42.091H45.9725C44.0514 44.8596 41.6116 47.2895 38.8068 49.1578M30.1426 42.091C30.1426 45.3437 32.3519 48.0929 35.3296 48.9061C38.5282 47.1636 41.3331 44.8887 43.5327 42.091H30.1426Z" fill="white"/>
<path d="M51.0731 7.72508C53.8684 11.0649 55.6934 15.2275 56.4811 19.787C57.7202 26.9603 56.3754 35.0823 52.1586 42.4685C47.9417 49.8548 41.6501 55.1113 34.8782 57.6476C33.8408 58.0349 32.7842 58.364 31.7275 58.6157V52.4008C32.448 52.2169 33.1684 51.9845 33.8792 51.7231C39.2007 49.729 44.1475 45.5857 47.4711 39.758C50.7946 33.9303 51.8608 27.5315 50.8906 21.8974C49.9205 16.2536 46.9139 11.3746 42.1015 8.58665C41.5444 8.26719 40.9873 7.97678 40.411 7.72508H51.0731Z" fill="white"/>
</svg>
