<svg width="887" height="310" viewBox="0 0 887 310" fill="none" xmlns="http://www.w3.org/2000/svg">
<g opacity="0.5">
<path opacity="0.1" fill-rule="evenodd" clip-rule="evenodd" d="M787.675 461.824C782.509 360.232 741.129 260.139 663.535 182.545C497.278 16.288 227.722 16.288 61.4651 182.545C-16.1287 260.139 -57.5087 360.233 -62.6749 461.825C-68.5783 345.74 -27.1983 227.698 61.465 139.035C227.722 -27.2221 497.278 -27.2221 663.535 139.035C752.198 227.698 793.578 345.739 787.675 461.824Z" fill="url(#paint0_radial_582_6817)"/>
<g opacity="0.1">
<path fill-rule="evenodd" clip-rule="evenodd" d="M208.289 119.408C187.039 119.408 169.605 136.926 169.605 158.395L169.605 390.929C184.124 388.045 196.896 383.185 208.289 375.494L208.289 119.408Z" fill="white"/>
<path fill-rule="evenodd" clip-rule="evenodd" d="M158.656 174.446C137.406 174.446 119.972 191.948 119.972 213.399L119.972 390.344C132.531 393.065 145.408 393.866 158.656 392.425L158.656 174.446Z" fill="white"/>
<path fill-rule="evenodd" clip-rule="evenodd" d="M108.293 232.472C87.3923 232.472 70.3387 249.842 70.3387 271.13L70.3387 369.149C71.1706 369.679 72.0025 370.208 72.8344 370.738C84.3247 377.834 96.1271 383.447 108.293 387.26L108.293 232.419L108.293 232.472Z" fill="white"/>
</g>
<g opacity="0.1">
<path fill-rule="evenodd" clip-rule="evenodd" d="M516.863 119.408C538.113 119.408 555.548 136.926 555.548 158.395L555.548 390.929C541.028 388.045 528.257 383.185 516.863 375.494L516.863 119.408Z" fill="white"/>
<path fill-rule="evenodd" clip-rule="evenodd" d="M566.496 174.446C587.746 174.446 605.181 191.948 605.181 213.399L605.181 390.344C592.621 393.065 579.744 393.866 566.496 392.425L566.496 174.446Z" fill="white"/>
<path fill-rule="evenodd" clip-rule="evenodd" d="M616.859 232.472C637.76 232.472 654.814 249.842 654.814 271.13L654.814 369.149C653.982 369.679 653.15 370.208 652.318 370.738C640.828 377.834 629.025 383.447 616.859 387.26L616.859 232.419L616.859 232.472Z" fill="white"/>
</g>
</g>
<defs>
<radialGradient id="paint0_radial_582_6817" cx="0" cy="0" r="1" gradientUnits="userSpaceOnUse" gradientTransform="translate(378.911 96.5373) rotate(90) scale(285.702)">
<stop stop-color="#F7F7F7" stop-opacity="0"/>
<stop offset="1" stop-color="#F7F7F7"/>
</radialGradient>
</defs>
</svg>
