<svg width="1040" height="385" viewBox="0 0 1040 385" fill="none" xmlns="http://www.w3.org/2000/svg">
<g opacity="0.5">
<path opacity="0.1" fill-rule="evenodd" clip-rule="evenodd" d="M949.675 536.824C944.509 435.232 903.129 335.139 825.535 257.545C659.278 91.288 389.722 91.288 223.465 257.545C145.871 335.139 104.491 435.233 99.3251 536.826C93.4216 420.74 134.802 302.698 223.465 214.035C389.722 47.7779 659.278 47.7779 825.535 214.035C914.198 302.698 955.578 420.739 949.675 536.824Z" fill="url(#paint0_radial_580_5439)"/>
<g opacity="0.1">
<path fill-rule="evenodd" clip-rule="evenodd" d="M370.289 196.174C349.039 196.174 331.605 214.359 331.605 236.645L331.605 478.03C346.124 475.036 358.896 469.991 370.289 462.008L370.289 196.174Z" fill="white"/>
<path fill-rule="evenodd" clip-rule="evenodd" d="M320.656 253.307C299.406 253.307 281.972 271.476 281.972 293.743L281.972 477.423C294.531 480.248 307.408 481.078 320.656 479.583L320.656 253.307Z" fill="white"/>
<path fill-rule="evenodd" clip-rule="evenodd" d="M270.293 313.542C249.392 313.542 232.339 331.573 232.339 353.671L232.339 455.421C233.171 455.971 234.003 456.521 234.834 457.07C246.325 464.436 258.127 470.263 270.293 474.221L270.293 313.487L270.293 313.542Z" fill="white"/>
</g>
<g opacity="0.1">
<path fill-rule="evenodd" clip-rule="evenodd" d="M678.861 196.174C700.111 196.174 717.546 214.359 717.546 236.645L717.546 478.03C703.026 475.036 690.255 469.991 678.861 462.008L678.861 196.174Z" fill="white"/>
<path fill-rule="evenodd" clip-rule="evenodd" d="M728.494 253.307C749.744 253.307 767.179 271.476 767.179 293.743L767.179 477.423C754.62 480.248 741.742 481.078 728.494 479.583L728.494 253.307Z" fill="white"/>
<path fill-rule="evenodd" clip-rule="evenodd" d="M778.857 313.542C799.758 313.542 816.812 331.573 816.812 353.671L816.812 455.421C815.98 455.971 815.148 456.521 814.316 457.07C802.826 464.436 791.023 470.263 778.857 474.221L778.857 313.487L778.857 313.542Z" fill="white"/>
</g>
</g>
<defs>
<radialGradient id="paint0_radial_580_5439" cx="0" cy="0" r="1" gradientUnits="userSpaceOnUse" gradientTransform="translate(540.911 171.537) rotate(90) scale(285.702)">
<stop stop-color="#F7F7F7" stop-opacity="0"/>
<stop offset="1" stop-color="#F7F7F7"/>
</radialGradient>
</defs>
</svg>
